<svg width="81" height="98" viewBox="0 0 81 98" fill="none" xmlns="http://www.w3.org/2000/svg">
<path d="M80.3936 85.4536C76.0641 89.1769 71.2152 92.0343 65.8467 94.0259C60.4782 96.0174 54.9149 97.0132 49.1567 97.0132C44.7407 97.0132 40.4762 96.4287 36.3633 95.2598C32.2936 94.1341 28.4621 92.5322 24.8687 90.4541C21.3185 88.3327 18.0715 85.8 15.1274 82.856C12.1834 79.9119 9.65072 76.6649 7.5293 73.1147C5.45117 69.5213 3.82764 65.6898 2.65869 61.6201C1.53304 57.5072 0.970215 53.2427 0.970215 48.8267C0.970215 44.4106 1.53304 40.1462 2.65869 36.0332C3.82764 31.9202 5.45117 28.0887 7.5293 24.5386C9.65072 20.9451 12.1834 17.6764 15.1274 14.7324C18.0715 11.7884 21.3185 9.27734 24.8687 7.19922C28.4621 5.0778 32.2936 3.45426 36.3633 2.32861C40.4762 1.15967 44.7407 0.575195 49.1567 0.575195C54.9149 0.575195 60.4782 1.57096 65.8467 3.5625C71.2152 5.51074 76.0641 8.36816 80.3936 12.1348L70.5225 28.3701C67.7949 25.4261 64.5695 23.1748 60.8462 21.6162C57.1229 20.0143 53.2264 19.2134 49.1567 19.2134C45.0438 19.2134 41.1906 19.9927 37.5972 21.5513C34.0037 23.1099 30.8649 25.2313 28.1807 27.9155C25.4964 30.5565 23.375 33.6953 21.8164 37.332C20.2578 40.9255 19.4785 44.757 19.4785 48.8267C19.4785 52.8963 20.2578 56.7279 21.8164 60.3213C23.375 63.8714 25.4964 66.9886 28.1807 69.6729C30.8649 72.3571 34.0037 74.4785 37.5972 76.0371C41.1906 77.5957 45.0438 78.375 49.1567 78.375C53.2264 78.375 57.1229 77.5957 60.8462 76.0371C64.5695 74.4352 67.7949 72.1623 70.5225 69.2183L80.3936 85.4536Z" fill="white"/>
</svg>
