<svg width="469" height="218" viewBox="0 0 469 218" fill="none" xmlns="http://www.w3.org/2000/svg">
<path d="M74.582 95H54.645L18.7324 33.6953V95H0.0942383V1.87402H20.0312L55.9438 63.2437V1.87402H74.582V95ZM183.164 48.8267C183.164 53.2427 182.58 57.5072 181.411 61.6201C180.285 65.6898 178.683 69.5213 176.605 73.1147C174.527 76.6649 172.016 79.9119 169.072 82.856C166.128 85.8 162.881 88.3327 159.331 90.4541C155.78 92.5322 151.949 94.1341 147.836 95.2598C143.723 96.4287 139.458 97.0132 135.042 97.0132C130.626 97.0132 126.362 96.4287 122.249 95.2598C118.179 94.1341 114.348 92.5322 110.754 90.4541C107.204 88.3327 103.957 85.8 101.013 82.856C98.0692 79.9119 95.5365 76.6649 93.415 73.1147C91.3369 69.5213 89.7134 65.6898 88.5444 61.6201C87.4188 57.5072 86.856 53.2427 86.856 48.8267C86.856 44.4106 87.4188 40.1462 88.5444 36.0332C89.7134 31.9202 91.3369 28.0887 93.415 24.5386C95.5365 20.9884 98.0692 17.7414 101.013 14.7974C103.957 11.8534 107.204 9.34229 110.754 7.26416C114.348 5.18604 118.179 3.58415 122.249 2.4585C126.362 1.28955 130.626 0.705078 135.042 0.705078C139.458 0.705078 143.723 1.28955 147.836 2.4585C151.949 3.58415 155.78 5.18604 159.331 7.26416C162.881 9.34229 166.128 11.8534 169.072 14.7974C172.016 17.7414 174.527 20.9884 176.605 24.5386C178.683 28.0887 180.285 31.9202 181.411 36.0332C182.58 40.1462 183.164 44.4106 183.164 48.8267ZM164.656 48.8267C164.656 44.757 163.876 40.9255 162.318 37.332C160.759 33.6953 158.638 30.5565 155.954 27.9155C153.313 25.2313 150.174 23.1099 146.537 21.5513C142.944 19.9927 139.112 19.2134 135.042 19.2134C130.93 19.2134 127.076 19.9927 123.483 21.5513C119.889 23.1099 116.751 25.2313 114.066 27.9155C111.382 30.5565 109.261 33.6953 107.702 37.332C106.144 40.9255 105.364 44.757 105.364 48.8267C105.364 52.8963 106.144 56.7279 107.702 60.3213C109.261 63.8714 111.382 66.9886 114.066 69.6729C116.751 72.3571 119.889 74.4785 123.483 76.0371C127.076 77.5957 130.93 78.375 135.042 78.375C139.112 78.375 142.944 77.5957 146.537 76.0371C150.174 74.4785 153.313 72.3571 155.954 69.6729C158.638 66.9886 160.759 63.8714 162.318 60.3213C163.876 56.7279 164.656 52.8963 164.656 48.8267ZM287.85 95H269.276V28.5C269.276 27.2012 269.017 25.9889 268.497 24.8633C268.021 23.7376 267.35 22.7635 266.484 21.9409C265.661 21.075 264.687 20.404 263.562 19.9277C262.436 19.4515 261.224 19.2134 259.925 19.2134C258.626 19.2134 257.414 19.4515 256.288 19.9277C255.162 20.404 254.167 21.075 253.301 21.9409C252.478 22.7635 251.829 23.7376 251.353 24.8633C250.876 25.9889 250.638 27.2012 250.638 28.5V95H232V28.5C232 27.2012 231.762 25.9889 231.286 24.8633C230.809 23.7376 230.138 22.7635 229.272 21.9409C228.45 21.075 227.476 20.404 226.35 19.9277C225.224 19.4515 224.012 19.2134 222.713 19.2134C221.415 19.2134 220.202 19.4515 219.077 19.9277C217.951 20.404 216.955 21.075 216.089 21.9409C215.267 22.7635 214.617 23.7376 214.141 24.8633C213.665 25.9889 213.427 27.2012 213.427 28.5V95H194.789V28.5C194.789 24.6468 195.503 21.0317 196.932 17.6548C198.404 14.2345 200.395 11.2689 202.906 8.75781C205.461 6.20345 208.426 4.21191 211.803 2.7832C215.223 1.3112 218.86 0.575195 222.713 0.575195C226.177 0.575195 229.511 1.20296 232.714 2.4585C235.918 3.67074 238.797 5.4458 241.352 7.78369C243.906 5.4458 246.763 3.67074 249.924 2.4585C253.128 1.20296 256.461 0.575195 259.925 0.575195C263.778 0.575195 267.393 1.3112 270.77 2.7832C274.19 4.21191 277.156 6.20345 279.667 8.75781C282.221 11.2689 284.213 14.2345 285.642 17.6548C287.114 21.0317 287.85 24.6468 287.85 28.5V95ZM359.35 57.7886V39.1504C359.35 36.596 358.852 34.1932 357.856 31.9419C356.904 29.6473 355.583 27.6558 353.895 25.9673C352.207 24.2788 350.215 22.9583 347.92 22.0059C345.669 21.0101 343.266 20.5122 340.712 20.5122C338.158 20.5122 335.733 21.0101 333.438 22.0059C331.187 22.9583 329.217 24.2788 327.529 25.9673C325.84 27.6558 324.498 29.6473 323.502 31.9419C322.55 34.1932 322.074 36.596 322.074 39.1504V57.7886H359.35ZM377.988 95H359.35V76.3618H322.074V95H303.5V39.1504C303.5 33.9984 304.475 29.1711 306.423 24.6685C308.371 20.1226 311.012 16.1611 314.346 12.7842C317.723 9.40723 321.662 6.74463 326.165 4.79639C330.711 2.84814 335.56 1.87402 340.712 1.87402C345.864 1.87402 350.691 2.84814 355.194 4.79639C359.74 6.74463 363.701 9.40723 367.078 12.7842C370.455 16.1611 373.118 20.1226 375.066 24.6685C377.014 29.1711 377.988 33.9984 377.988 39.1504V95ZM468.776 48.437C468.776 52.7231 468.214 56.8577 467.088 60.8408C466.006 64.7806 464.447 68.4823 462.412 71.9458C460.377 75.366 457.953 78.5049 455.139 81.3623C452.325 84.1764 449.186 86.6009 445.722 88.6357C442.259 90.6706 438.535 92.2508 434.552 93.3765C430.612 94.4588 426.5 95 422.213 95H394.159V1.87402H422.213C426.5 1.87402 430.612 2.43685 434.552 3.5625C438.535 4.64486 442.259 6.20345 445.722 8.23828C449.186 10.2731 452.325 12.7192 455.139 15.5767C457.953 18.3908 460.377 21.5296 462.412 24.9932C464.447 28.4134 466.006 32.1151 467.088 36.0981C468.214 40.0379 468.776 44.1509 468.776 48.437ZM450.138 48.437C450.138 44.5838 449.402 40.9688 447.93 37.5918C446.501 34.2148 444.51 31.2708 441.956 28.7598C439.444 26.2054 436.479 24.1922 433.059 22.7202C429.682 21.2482 426.067 20.5122 422.213 20.5122H412.927V76.3618H422.213C426.067 76.3618 429.682 75.6475 433.059 74.2188C436.479 72.7467 439.444 70.7552 441.956 68.2441C444.51 65.6898 446.501 62.7241 447.93 59.3472C449.402 55.9269 450.138 52.2902 450.138 48.437ZM165.695 168.827C165.695 173.243 165.11 177.507 163.941 181.62C162.816 185.69 161.214 189.521 159.136 193.115C157.058 196.665 154.547 199.912 151.603 202.856C148.659 205.8 145.411 208.333 141.861 210.454C138.311 212.532 134.48 214.134 130.367 215.26C126.254 216.429 121.989 217.013 117.573 217.013C113.157 217.013 108.893 216.429 104.78 215.26C100.71 214.134 96.8786 212.532 93.2852 210.454C89.735 208.333 86.488 205.8 83.5439 202.856C80.5999 199.912 78.0672 196.665 75.9458 193.115C73.8677 189.521 72.2441 185.69 71.0752 181.62C69.9495 177.507 69.3867 173.243 69.3867 168.827C69.3867 164.411 69.9495 160.146 71.0752 156.033C72.2441 151.92 73.8677 148.089 75.9458 144.539C78.0672 140.988 80.5999 137.741 83.5439 134.797C86.488 131.853 89.735 129.342 93.2852 127.264C96.8786 125.186 100.71 123.584 104.78 122.458C108.893 121.29 113.157 120.705 117.573 120.705C121.989 120.705 126.254 121.29 130.367 122.458C134.48 123.584 138.311 125.186 141.861 127.264C145.411 129.342 148.659 131.853 151.603 134.797C154.547 137.741 157.058 140.988 159.136 144.539C161.214 148.089 162.816 151.92 163.941 156.033C165.11 160.146 165.695 164.411 165.695 168.827ZM147.187 168.827C147.187 164.757 146.407 160.925 144.849 157.332C143.29 153.695 141.169 150.556 138.484 147.916C135.843 145.231 132.705 143.11 129.068 141.551C125.474 139.993 121.643 139.213 117.573 139.213C113.46 139.213 109.607 139.993 106.014 141.551C102.42 143.11 99.2814 145.231 96.5972 147.916C93.9129 150.556 91.7915 153.695 90.2329 157.332C88.6743 160.925 87.895 164.757 87.895 168.827C87.895 172.896 88.6743 176.728 90.2329 180.321C91.7915 183.871 93.9129 186.989 96.5972 189.673C99.2814 192.357 102.42 194.479 106.014 196.037C109.607 197.596 113.46 198.375 117.573 198.375C121.643 198.375 125.474 197.596 129.068 196.037C132.705 194.479 135.843 192.357 138.484 189.673C141.169 186.989 143.29 183.871 144.849 180.321C146.407 176.728 147.187 172.896 147.187 168.827ZM196.607 215H177.969V121.874H243.17V140.512H196.607V159.15H224.532V177.789H196.607V215ZM271.419 215H252.781V121.874H317.982V140.512H271.419V159.15H299.344V177.789H271.419V215ZM391.431 215H327.594V121.874H391.431V140.512H346.232V159.15H376.819V177.789H346.232V196.362H391.431V215ZM468.322 215H404.484V121.874H468.322V140.512H423.123V159.15H453.71V177.789H423.123V196.362H468.322V215Z" fill="white"/>
</svg>
